<?xml version="1.0" encoding="utf-8"?>
<!-- Generator: Adobe Illustrator 24.1.2, SVG Export Plug-In . SVG Version: 6.00 Build 0)  -->
<svg version="1.1" id="Слой_1" xmlns="http://www.w3.org/2000/svg" xmlns:xlink="http://www.w3.org/1999/xlink" x="0px" y="0px"
	 viewBox="0 0 256 256" style="enable-background:new 0 0 256 256;" xml:space="preserve">
<style type="text/css">
	.st0{fill:#FFFFFF;stroke:#000000;stroke-miterlimit:10;}
	.st1{fill:#00FFFF;stroke:#000000;stroke-width:0.25;stroke-miterlimit:10;}
</style>
<circle class="st0" cx="128" cy="128" r="92.5"/>
<path class="st1" d="M167.8,170.4c8.8,0,15.9,6.3,15.9,14.1c0,7.8-7.1,14.1-15.9,14.1c-8.8,0-15.9-6.4-15.9-14.1
	C151.8,176.7,158.9,170.4,167.8,170.4 M40.3,57.3h26.1l7.5,14.1h117.8c4.4,0,8,3.2,8,7.1c0,1.2-0.4,2.4-1,3.5l-28.5,45.8
	c-2.7,4.3-8,7.3-13.9,7.3H96.9l-7.2,11.5l-0.2,0.8c0,1,0.9,1.8,2,1.8h92.3v14.1H88.1c-8.8,0-15.9-6.4-15.9-14.1
	c0-2.5,0.7-4.8,1.9-6.8l10.8-17.3L56.2,71.4H40.3V57.3 M88.1,170.4c8.8,0,15.9,6.3,15.9,14.1c0,7.8-7.1,14.1-15.9,14.1
	c-8.8,0-15.9-6.4-15.9-14.1C72.1,176.7,79.2,170.4,88.1,170.4 M159.8,120.9l22.2-35.4H81.2l18.8,35.4H159.8z"/>
</svg>
