<?xml version="1.0" encoding="utf-8"?>
<!-- Generator: Adobe Illustrator 24.1.2, SVG Export Plug-In . SVG Version: 6.00 Build 0)  -->
<svg version="1.1" id="Слой_1" xmlns="http://www.w3.org/2000/svg" xmlns:xlink="http://www.w3.org/1999/xlink" x="0px" y="0px"
	 viewBox="0 0 256 256" style="enable-background:new 0 0 256 256;" xml:space="preserve">
<style type="text/css">
	.st0{fill:none;stroke:#000000;stroke-width:2;stroke-miterlimit:10;}
</style>
<path class="st0" d="M136.4,123l56-56c3.6-3.6,3.6-9.6,0-13.2l-0.2-0.2c-3.6-3.6-9.6-3.6-13.2,0l-56,56l-56-56
	c-3.6-3.6-9.6-3.6-13.2,0l-0.2,0.2c-3.6,3.6-3.6,9.6,0,13.2l56,56l-56,56c-3.6,3.6-3.6,9.6,0,13.2l0.2,0.2c3.6,3.6,9.6,3.6,13.2,0
	l56-56l56,56c3.6,3.6,9.6,3.6,13.2,0l0.2-0.2c3.6-3.6,3.6-9.6,0-13.2L136.4,123z"/>
</svg>
