<!--?xml version="1.0" encoding="utf-8"?-->
<!-- Generator: Adobe Illustrator 24.1.2, SVG Export Plug-In . SVG Version: 6.00 Build 0)  -->
<svg version="1.1" id="Слой_1" xmlns="http://www.w3.org/2000/svg" xmlns:xlink="http://www.w3.org/1999/xlink" x="0px" y="0px" viewBox="0 0 256 256" style="" xml:space="preserve">
<style type="text/css">
	.st0{fill:none;stroke:#000000;stroke-width:2;stroke-miterlimit:10;}
</style>
<g>
	<path class="st0 dhzedcnp_0" d="M150,168c17-15.5,27.6-37.6,27.6-62.2c0-46.8-38.6-84.8-86.2-84.8s-86.2,38-86.2,84.8s38.6,84.8,86.2,84.8
		c14.2,0,27.5-3.4,39.3-9.4"></path>
	<path class="st0 dhzedcnp_1" d="M122.9,160c-9.3,5.2-20,8.2-31.5,8.2c-35.1,0-63.5-28-63.5-62.5s28.4-62.5,63.5-62.5s63.5,28,63.5,62.5
		c0,14.6-5.1,28.1-13.7,38.7"></path>
	<path class="st0 dhzedcnp_2" d="M158.5,191.3"></path>
	<path class="st0 dhzedcnp_3" d="M149.9,168l-8.7-23.5l-8.2-22.3c-2.1-5.8-8.6-8.8-14.5-6.7c-5.9,2.1-8.9,8.5-6.8,14.3l11.2,30.2l7.8,21.2
		l17.2,46.5c2.1,5.8,8.6,8.8,14.5,6.7c0.3-0.1,0.5-0.2,0.8-0.4c0.1,0,0.1,0,0.2-0.1c0.3-0.1,0.5-0.3,0.8-0.4
		c0.1-0.1,0.2-0.1,0.3-0.2c0.2-0.1,0.5-0.3,0.7-0.4c0.3-0.2,0.6-0.4,0.9-0.7c0.1-0.1,0.2-0.2,0.3-0.3c0.2-0.2,0.4-0.4,0.7-0.7
		c0.1-0.1,0.1-0.2,0.2-0.3c0.2-0.3,0.5-0.6,0.7-0.9c0,0,0-0.1,0.1-0.1c0.5-0.7,0.9-1.5,1.2-2.3l11.7-31.6l11.7,31.6
		c0.3,0.8,0.7,1.6,1.2,2.3c0,0,0,0.1,0.1,0.1c0.2,0.3,0.5,0.6,0.7,0.9c0.1,0.1,0.1,0.2,0.2,0.3c0.2,0.2,0.4,0.5,0.7,0.7
		c0.1,0.1,0.2,0.2,0.3,0.3c0.3,0.2,0.6,0.5,0.9,0.7c0.2,0.2,0.5,0.3,0.7,0.4c0.1,0.1,0.2,0.1,0.3,0.2c0.3,0.1,0.5,0.3,0.8,0.4
		c0.1,0,0.1,0,0.2,0.1c0.3,0.1,0.5,0.3,0.8,0.4c5.9,2.1,12.4-0.9,14.5-6.7l36.2-97.9c2.1-5.8-0.9-12.2-6.8-14.3
		c-5.9-2.1-12.4,0.9-14.5,6.7l-25.5,69l-0.1,0.2L191.7,160c-1.6-4.4-5.8-7.2-10.3-7.3c-0.1,0-0.3,0-0.4,0c-0.1,0-0.3,0-0.4,0
		c-4.5,0.1-8.7,2.9-10.3,7.3l-11.6,31.3l-0.1-0.2L149.9,168"></path>
</g>
<style data-made-with="vivus-instant">.dhzedcnp_0{stroke-dasharray:514 516;stroke-dashoffset:515;animation:dhzedcnp_draw 2000ms linear 0ms forwards;}.dhzedcnp_1{stroke-dasharray:372 374;stroke-dashoffset:373;animation:dhzedcnp_draw 2000ms linear 333ms forwards;}.dhzedcnp_2{stroke-dasharray:0 2;stroke-dashoffset:1;animation:dhzedcnp_draw 2000ms linear 666ms forwards;}.dhzedcnp_3{stroke-dasharray:645 647;stroke-dashoffset:646;animation:dhzedcnp_draw 2000ms linear 1000ms forwards;}@keyframes dhzedcnp_draw{100%{stroke-dashoffset:0;}}@keyframes dhzedcnp_fade{0%{stroke-opacity:1;}94.44444444444444%{stroke-opacity:1;}100%{stroke-opacity:0;}}</style></svg>
